<?xml version="1.0" encoding="UTF-8"?>
<svg version="1.1" xmlns="http://www.w3.org/2000/svg" width="63" height="44">
<path d="M0 0 C2.01920337 1.30406884 4.01924973 2.63823419 6 4 C8.37765384 4.31358721 8.37765384 4.31358721 10.9375 4.375 C15.54470387 4.71498944 18.2687379 5.68309549 21.59375 8.9296875 C25.47494074 14.64366275 26.94613971 23.24185923 26 30 C23.90845836 33.88429162 21.87464092 36.8618409 18 39 C14.84809286 39.44450948 11.74061936 39.41837085 8.5625 39.375 C7.71623047 39.38660156 6.86996094 39.39820313 5.99804688 39.41015625 C1.23592547 39.38778136 -2.20827598 39.21128118 -6 36 C-7.31223496 32.06329512 -6.24296256 29.87511856 -5 26 C-4.01 26 -3.02 26 -2 26 C-2 25.34 -2 24.68 -2 24 C-1.34 24 -0.68 24 0 24 C0.33773437 24.71027344 0.67546875 25.42054687 1.0234375 26.15234375 C1.46945313 27.07144531 1.91546875 27.99054687 2.375 28.9375 C2.81585938 29.85402344 3.25671875 30.77054688 3.7109375 31.71484375 C4.79199162 34.12903802 4.79199162 34.12903802 7 35 C6.74863281 33.96939453 6.74863281 33.96939453 6.4921875 32.91796875 C6.28851563 32.01691406 6.08484375 31.11585937 5.875 30.1875 C5.66617188 29.29417969 5.45734375 28.40085937 5.2421875 27.48046875 C5 25 5 25 7 22 C6.01 22 5.02 22 4 22 C5.36983503 18.83884224 5.9890638 18.0072908 9 16 C9 14.68 9 13.36 9 12 C5.78299472 12.34778436 4.40849852 12.50072404 2.3125 15.0625 C1.879375 15.701875 1.44625 16.34125 1 17 C0.34 17 -0.32 17 -1 17 C-1 16.01 -1 15.02 -1 14 C-1.99 14.66 -2.98 15.32 -4 16 C-6.69921875 15.7578125 -6.69921875 15.7578125 -9.6875 15.125 C-10.68136719 14.92132813 -11.67523437 14.71765625 -12.69921875 14.5078125 C-13.83810547 14.25644531 -13.83810547 14.25644531 -15 14 C-15 14.66 -15 15.32 -15 16 C-14.319375 16.0825 -13.63875 16.165 -12.9375 16.25 C-9.1253093 17.22332528 -6.35929671 18.95807455 -3 21 C-3 21.66 -3 22.32 -3 23 C-8.12444083 27.86821879 -13.91644054 32.10289882 -21.1875 32.5 C-25.58754604 31.92294478 -27.21476302 31.46044594 -30 28 C-31.16531294 24.88264 -31.59115931 22.29116579 -31 19 C-29.06761879 16.36444674 -26.87810531 14.54184213 -24 13 C-23.01 13 -22.02 13 -21 13 C-20.690625 11.700625 -20.690625 11.700625 -20.375 10.375 C-18.70968628 6.28741179 -16.46298016 3.70517789 -13 1 C-8.66372288 -0.44542571 -4.5325618 -0.54247984 0 0 Z " fill="#39AE54" transform="translate(33,2)"/>
<path d="M0 0 C0.99 0.33 1.98 0.66 3 1 C2.34 1 1.68 1 1 1 C0.731875 1.598125 0.46375 2.19625 0.1875 2.8125 C-0.99917406 4.99847854 -2.09599113 6.41332594 -4 8 C-4.66 8 -5.32 8 -6 8 C-6.33 8.66 -6.66 9.32 -7 10 C-6.42424336 6.64749299 -5.40693737 5.06181371 -2.9375 2.75 C-2.38964844 2.22921875 -1.84179688 1.7084375 -1.27734375 1.171875 C-0.64505859 0.59179688 -0.64505859 0.59179688 0 0 Z " fill="#98D5A6" transform="translate(20,3)"/>
</svg>
