<svg width="71" height="74" viewBox="0 0 71 74" fill="none" xmlns="http://www.w3.org/2000/svg">
<path d="M68.9364 27.6556H32.1699V65.4511H68.9364V27.6556Z" fill="white"/>
<path d="M36.5814 2.32915L36.5513 3.35775L35.8466 3.43175C35.4632 3.4632 34.5269 3.54737 33.7823 3.61675C33.0376 3.68612 31.9691 3.8406 31.418 3.94605C30.8668 4.0515 30.2802 4.17637 30.1089 4.20782C29.8169 4.26055 29.4646 4.3549 28.5478 4.6176C28.2966 4.69067 27.8227 4.82757 27.4908 4.9321C26.645 5.17352 25.698 5.5204 25.5773 5.63602C25.486 5.69228 25.3816 5.72109 25.2756 5.71927C25.1329 5.73259 24.9967 5.7874 24.8824 5.87745C24.7851 5.95618 24.6714 6.01004 24.5505 6.0347C24.4395 6.0347 23.7242 6.37047 22.2039 7.11602C20.9854 7.72467 18.085 9.6237 17.0174 10.5163C16.6855 10.7994 16.2524 11.1462 16.0607 11.2822C15.1643 11.9436 12.2542 15.0192 11.0161 16.6037C10.0691 17.821 7.62231 21.7042 7.6019 22.0094C7.6019 22.0511 7.33565 22.6384 7.01792 23.3211C6.23248 24.9861 5.6281 26.5854 5.7488 26.7112C5.79938 26.7639 6.17213 26.5956 6.67535 26.2811C7.13862 25.9971 7.54155 25.7668 7.58148 25.7668C7.62142 25.7668 7.97465 25.6299 8.39798 25.4625C10.0186 24.8214 11.4288 24.5597 13.1905 24.5698C13.915 24.5717 14.6384 24.6314 15.3542 24.7484C17.0458 25.074 19.0001 25.8815 20.2887 26.7834C21.0342 27.2977 21.2357 27.3291 21.7087 26.9933C22.0815 26.7316 22.6353 26.3847 23.2592 26.0276C23.7127 25.7659 25.0821 25.2303 25.9279 24.9889C29.2409 24.0444 32.9391 24.6115 36.0454 26.5318C36.2297 26.6582 36.4074 26.7947 36.5779 26.9406C36.9808 27.2977 37.4139 27.3189 37.8364 26.9933C38.7629 26.3116 40.2637 25.5762 41.8345 25.0508C42.62 24.7881 44.0702 24.5782 45.207 24.568C47.795 24.5467 50.1211 25.2081 52.2866 26.5937L53.3241 27.2653L53.7466 27.0664C54.0157 26.9404 54.275 26.7929 54.5222 26.6252C55.5597 25.8907 57.6844 25.0527 59.1949 24.7567C60.6043 24.4949 62.3367 24.4524 63.3538 24.6522C65.6098 25.1147 66.6162 25.5022 68.7515 26.7797C68.7915 26.8009 68.8518 26.7593 68.882 26.6751C68.9326 26.5179 68.4995 25.3209 67.8454 23.8724C67.6439 23.4423 67.3715 22.8234 67.2304 22.508C67.1034 22.2207 66.9624 21.9404 66.8079 21.6681C66.7192 21.522 66.4857 21.1224 66.3038 20.7764C66.0118 20.2214 65.4483 19.3177 64.5927 18.0162C63.1523 15.8221 60.4632 12.8834 58.1069 10.952C57.4528 10.4062 55.6503 9.06315 55.2473 8.81155C55.1586 8.74865 54.8036 8.53404 54.4717 8.3176C53.7466 7.86712 51.6121 6.7229 50.6953 6.31312C50.3332 6.1457 49.9099 5.94312 49.759 5.86172C49.6146 5.78345 49.4575 5.73359 49.2958 5.71464C49.2013 5.71325 49.1091 5.68442 49.0295 5.6314C48.9088 5.51577 48.2441 5.27435 47.2669 4.9839C46.8542 4.8581 46.3306 4.68975 46.1132 4.6065C45.9152 4.53072 45.7089 4.4813 45.499 4.45942C45.3947 4.46223 45.2922 4.42979 45.207 4.36692C45.1467 4.3142 44.9053 4.2513 44.6532 4.21985C44.4012 4.1884 43.7542 4.07 43.1977 3.95622C42.2916 3.77122 41.5665 3.67872 38.7665 3.43175L37.9606 3.35775L37.9304 2.32915L37.9003 1.31165H36.6116L36.5814 2.32915ZM41.1334 12.4579L41.3109 12.6993L41.5727 12.4477L41.8443 12.185L42.1106 12.4681C42.3724 12.7456 42.3724 12.752 42.1913 12.962C42.02 13.147 41.9899 13.1609 41.7786 13.0138C41.476 12.8149 41.3455 12.8149 41.1139 13.0351C40.9364 13.2034 40.9124 13.1923 40.6604 12.9306C40.4083 12.6688 40.3986 12.6466 40.5805 12.4366C40.8113 12.1637 40.9142 12.1748 41.1334 12.4579ZM24.8194 12.5948C25.0111 12.8149 25.0413 12.9093 24.9605 13.0453C24.7892 13.3181 24.5274 13.3181 24.2558 13.0564L24.0135 12.8149L24.2354 12.5735C24.507 12.2692 24.5274 12.2692 24.8194 12.5948ZM27.4819 12.9722C27.5121 13.1507 27.5422 14.0221 27.5422 14.9036C27.5422 16.6768 27.5724 16.7823 28.1635 16.7194C28.4457 16.6981 28.5061 16.6352 28.546 16.3836C28.6064 16.0367 28.8486 15.8795 28.8486 16.194C28.8486 16.4779 29.1903 16.761 29.4699 16.7194C29.6314 16.6981 29.7317 16.5825 29.8027 16.341C29.9234 15.9109 30.0139 15.9109 30.195 16.3725C30.4169 16.9275 30.9707 16.8664 31.0709 16.28C31.1313 15.9544 31.3026 15.9868 31.4641 16.354C31.5946 16.6472 31.6753 16.6898 32.0481 16.724C32.6019 16.7656 32.7732 16.6185 32.7732 16.1153C32.7732 15.1496 33.7805 14.6982 34.384 15.38C35.0292 16.1042 35.1827 17.4057 34.6866 17.9515C34.3316 18.3511 33.9615 18.2983 33.4273 17.784L32.9746 17.3539L32.7128 17.6786C32.4208 18.0486 31.8866 18.13 31.6656 17.8469C31.4943 17.637 31.3629 17.6471 31.1011 17.9098L30.8713 18.13L30.4692 17.8886C30.0858 17.6684 30.0459 17.6684 29.8746 17.8257C29.6332 18.0569 29.4415 18.0458 29.0687 17.8257C28.7768 17.6471 28.7572 17.6471 28.5655 17.8257C28.4448 17.9413 28.2105 18.0042 27.8706 18.0042C27.4269 18.0042 27.3168 17.9626 27.1056 17.6897C26.7506 17.2586 26.6521 16.6296 26.6219 14.7611L26.6015 13.1341L26.9441 12.8926C27.3772 12.58 27.3976 12.58 27.4783 12.9722H27.4819ZM48.055 13.0878L48.2867 13.308L48.5387 13.0665L48.805 12.8149L49.0765 13.098L49.3428 13.382L49.1413 13.591C48.9399 13.801 48.9301 13.8121 48.6177 13.6225C48.3257 13.4449 48.3053 13.4449 48.0941 13.6437C47.8829 13.8426 47.8829 13.8435 47.621 13.5596C47.3592 13.2756 47.3592 13.2765 47.5403 13.0665C47.7595 12.8038 47.7693 12.8038 48.0515 13.0878H48.055ZM25.2525 14.2108C25.4528 14.4464 25.6128 14.7161 25.7255 15.0081C25.8968 15.5631 25.7965 16.5307 25.5045 17.0764C25.1717 17.7054 24.7386 17.9265 23.7624 18.0014L22.9565 18.0541L22.8962 18.5259C22.8114 19.1421 22.5665 19.7223 22.188 20.2038C21.8756 20.6025 21.833 20.6238 21.3005 20.6238C20.3943 20.6238 19.5787 20.3084 20.0517 20.1409C21.2197 19.7312 22.5998 18.7026 22.5998 18.2512C22.5998 18.0662 22.2172 17.3696 22.1161 17.3696C22.0026 17.3117 21.8975 17.2376 21.8037 17.1495L21.5525 16.9395L21.7939 16.4668C21.935 16.2152 22.0761 16.0043 22.1258 16.0043C22.1755 16.0043 22.3575 16.1727 22.5394 16.3743C22.8713 16.7443 22.8811 16.7443 23.7473 16.7443C24.3313 16.7443 24.7235 16.6925 24.9152 16.5871C25.359 16.3457 25.2782 16.2513 24.6943 16.2939C23.9692 16.3457 23.5059 16.0626 23.5059 15.5696C23.5059 14.6242 23.9993 13.8056 24.5629 13.8056C24.8194 13.801 24.9809 13.8963 25.2525 14.2108ZM41.7067 13.9379C41.9792 14.0951 42.2614 14.4836 42.4522 14.9554C42.6439 15.4484 42.6439 17.39 42.4522 17.8941C42.0298 18.9958 41.4148 19.3843 40.0152 19.4472C38.8073 19.4999 38.273 19.3001 37.8506 18.6387C37.6083 18.2502 37.5843 18.1457 37.6287 17.4529C37.6793 16.7184 37.9304 15.9414 38.1017 16.0469C38.1425 16.0783 38.1621 16.3512 38.1319 16.6555C38.1017 17.118 38.1319 17.2744 38.3334 17.5805C38.6662 18.0948 39.1392 18.2419 40.3373 18.179C41.4148 18.1374 41.989 17.8849 42.0999 17.4233C42.1887 17.0533 42.0795 16.9506 41.6366 16.9506C41.1432 16.9506 40.458 16.6676 40.3276 16.416C40.1971 16.1644 40.2069 15.8804 40.3782 15.306C40.5894 14.6446 40.8113 14.2145 41.0731 13.9943C41.3349 13.7742 41.4148 13.7695 41.7067 13.9379ZM52.7943 15.071C53.4892 15.3023 54.2746 15.5224 54.5462 15.5539C54.8178 15.5853 55.0707 15.6695 55.0902 15.7389C55.1098 15.8082 55.0397 16.0432 54.9296 16.2532C54.7521 16.5677 54.6474 16.6306 54.3758 16.6306C54.1637 16.6306 53.5495 16.8822 52.7543 17.2781L51.4648 17.945L50.2764 17.9875C49.2114 18.019 49.0588 17.9977 48.726 17.8025C48.371 17.5824 48.3532 17.5824 48.1624 17.7609C48.0213 17.8978 47.7488 17.9607 47.195 17.9811C46.3297 18.0338 46.1682 18.118 46.1682 18.5166C46.1682 18.8737 45.7449 19.8116 45.3428 20.3324L45.0207 20.7524L44.2654 20.6895C43.5598 20.6155 43.2474 20.5045 43.2474 20.3111C43.2474 20.2695 43.6308 20.0494 44.0941 19.8079C44.9816 19.3454 45.7653 18.6535 45.7653 18.3279C45.7653 18.1596 45.665 18.118 45.1112 18.0504C44.6275 17.9977 44.3755 17.9135 44.1545 17.7147C43.8119 17.4205 43.7817 17.1476 43.9929 16.4132C44.2752 15.4577 44.6479 14.9545 45.081 14.9545C45.3925 14.9545 45.957 15.602 46.146 16.157L46.3235 16.6824L46.8968 16.7138C47.511 16.7453 47.5314 16.7342 47.3601 16.4298C47.1693 16.1255 47.3504 15.6741 47.834 15.1922C48.4278 14.5937 48.8209 14.5724 49.2736 15.108C49.6286 15.528 49.6863 16.021 49.4244 16.403C49.2842 16.613 49.2842 16.6444 49.4351 16.6972C49.7573 16.8341 51.9325 16.6657 52.3452 16.477C52.5671 16.3845 52.7002 16.267 52.647 16.2143C52.5263 16.0885 51.227 15.5844 51.0255 15.5844C50.9367 15.5844 50.7539 15.6898 50.6235 15.8156C50.4522 15.9729 50.3572 16.0154 50.2809 15.9313C50.0395 15.6787 50.8746 14.6363 51.3184 14.6363C51.4453 14.6409 52.0967 14.8296 52.7943 15.071Z" fill="#084981"/>
<path d="M33.5203 15.7324C33.3383 16.2365 33.9525 17.3807 34.319 17.2337C34.7317 17.0764 34.2888 15.6797 33.8051 15.6066C33.6711 15.5853 33.5478 15.638 33.5203 15.7324ZM34.0235 16.2781C34.1122 16.5094 33.9933 16.6139 33.8824 16.4252C33.7714 16.2365 33.7617 16.1107 33.8726 16.1107C33.9223 16.1107 33.9915 16.1875 34.0235 16.28V16.2781Z" fill="#084981"/>
<path d="M24.0129 14.9036C23.8221 15.145 23.9934 15.2736 24.5268 15.2736C25.0602 15.2736 25.1409 15.1682 24.7984 14.9166C24.517 14.7075 24.1744 14.7075 24.0129 14.9036Z" fill="#084981"/>
<path d="M40.8712 15.1765C40.6937 15.3865 40.6937 15.3966 40.881 15.5465C41.0922 15.7037 41.7977 15.7463 41.8776 15.5992C41.9486 15.4938 41.5554 15.1053 41.2741 15.022C41.133 14.9767 41.0025 15.0192 40.8712 15.1765Z" fill="#084981"/>
<path d="M47.9003 15.8064C47.6181 15.9211 47.6482 16.0839 48.0006 16.3522C48.202 16.5094 48.3556 16.5372 48.6351 16.4881C49.0984 16.3956 49.1987 16.1422 48.8765 15.8897C48.6147 15.6797 48.2624 15.6482 47.9003 15.8064Z" fill="#084981"/>
<path d="M44.5268 16.1875C44.3955 16.3133 44.4558 16.6176 44.6156 16.6805C44.8268 16.7647 45.4143 16.7647 45.4916 16.6703C45.622 16.5445 45.1286 16.1153 44.857 16.1153C44.7079 16.1107 44.557 16.1422 44.5268 16.1875Z" fill="#084981"/>
<path d="M32.1699 32.2215V36.7873L36.5808 36.766L40.981 36.7345L41.0121 32.19L41.0316 27.6575H32.1699V32.2215ZM39.7225 32.1687V35.4275L36.5808 35.4062L33.4284 35.3748L33.3982 32.1419L33.3787 28.9201H39.7225V32.1687Z" fill="black"/>
<path d="M34.6875 32.1687V34.163L36.5805 34.1418L38.4638 34.1103L38.494 32.1373L38.5144 30.1744H34.6875V32.1687Z" fill="black"/>
<path d="M44.8588 28.9155V30.1855L45.48 30.1541L46.1013 30.1226L46.0808 28.9201L46.0711 27.713L45.4569 27.6815L44.8525 27.6501L44.8588 28.9155Z" fill="black"/>
<path d="M47.377 28.2856V28.9257L48.0106 28.8942L48.6319 28.8628L48.6621 28.2541L48.6922 27.6556H47.377V28.2856Z" fill="black"/>
<path d="M52.4812 27.7287C52.4413 27.7611 52.4111 28.0441 52.4111 28.3586V28.9137H51.213L51.1828 29.5112L51.1527 30.1208L50.5314 30.1522L49.8968 30.1837V30.7923C49.8968 31.4639 49.8365 31.5323 49.2623 31.5323C48.7892 31.5323 48.7085 31.4278 48.6685 30.7979L48.6384 30.2207L48.0171 30.1892L47.3834 30.1578V32.782L48.0171 32.8135L48.6384 32.8449L48.6481 33.4425L48.6588 34.0409L47.3897 34.0724L46.1205 34.1038L46.0904 34.7513L46.0602 35.3988L46.6947 35.4303L47.3293 35.4617L47.3595 36.0602L47.3897 36.6689H46.1773L46.1498 36.075L46.1196 35.4765L45.4984 35.4451L44.8638 35.4136V32.8088L45.4984 32.7774L46.1196 32.7459L46.1498 32.2316C46.1702 31.9486 46.1401 31.6766 46.0895 31.623C45.9892 31.5185 42.4942 31.4445 42.3336 31.5388C42.2732 31.5814 42.2448 31.8644 42.2635 32.1789L42.2936 32.7459L42.8971 32.7987L43.5015 32.8514L43.5317 33.4489L43.5619 34.0474L42.9273 34.0789L42.2936 34.1103V36.7345L42.9273 36.766L43.5619 36.7974L43.5317 37.3959L43.5015 37.9944L41.6182 38.0258L39.7252 38.0462V39.306H38.5173V38.0462H32.1699V39.306H32.9048C33.3255 39.3066 33.7459 39.331 34.1641 39.3791L34.6966 39.442L34.6665 40.0303L34.6363 40.6177L34.015 40.6491L33.3805 40.6806V41.9303H32.1699V43.2835L32.7539 43.315L33.3281 43.3464L33.3583 43.9449L33.3885 44.5536H35.8859L35.9161 45.2011L35.9462 45.8624L36.5808 45.8939L37.2154 45.9253L37.1861 46.5275L37.1559 47.126L35.9267 47.1574L34.6984 47.1889L34.6682 47.8364L34.6381 48.4839H33.4284L33.3982 47.8225L33.368 47.175H32.1699V55.0467H33.3787L33.3982 52.4567L33.4284 49.8538L34.6576 49.8224L35.8859 49.7909L35.9161 50.4523L35.9462 51.1137L37.2349 51.1451L38.5147 51.1766V53.6852H37.2047V52.4253H34.6878V55.0495H42.2315L42.2626 56.3297L42.2927 57.6247L42.8962 57.6775L43.5006 57.7292L43.5512 58.3592L43.6018 58.9891L44.2053 58.9789L44.8097 58.9577L44.8603 58.349L44.9109 57.7292L45.4948 57.6978L46.0691 57.6663V60.31L44.8399 60.2785L43.5974 60.2471L43.5672 59.5857L43.537 58.9244L42.9158 58.9558L42.2945 58.9873V65.3892L42.9158 65.4216L43.537 65.453L43.5672 64.8434L43.5974 64.2348L44.2186 64.2033L44.8399 64.1719L44.87 62.8917L44.9002 61.6115L46.7933 61.58L48.6765 61.5588V60.2971H49.8844V62.9213H51.1935V64.1811H48.6854V62.9213H46.0673V64.1811H48.6854V65.4401L50.5784 65.4197L52.4617 65.3873L52.4919 64.1497L52.5221 62.9213H56.238V64.1811H58.7452L58.7754 64.7787L58.8056 65.3873L59.4401 65.4197L60.0614 65.4512V64.1811H61.3713V65.4401L63.2644 65.4197L65.1476 65.3873L65.1778 63.467L65.1973 61.5467L65.7813 61.5782L66.3555 61.6096L66.3857 62.8898L66.4159 64.1848H67.7054L67.7356 62.8898L67.7658 61.6096L68.3498 61.5782L68.924 61.5467V57.6738H66.4088V58.3027C66.4088 58.8809 66.4292 58.9327 66.6502 58.9956C66.7622 59.0283 66.8807 59.0283 66.9928 58.9956C67.1285 58.9628 67.2697 58.9628 67.4054 58.9956C67.7276 59.0696 67.7276 59.0696 67.6974 59.657L67.6673 60.2453L66.439 60.2767L65.1965 60.3082V61.5569H63.8909V59.0381H64.3844C65.1601 59.0381 65.2 58.9956 65.2 58.2926V57.6839L64.5788 57.6525L63.9442 57.621L63.914 57.0226L63.8838 56.4241L64.5184 56.3926L65.153 56.3612L65.1832 54.3881L65.2027 52.4253H66.4114V51.1766L67.046 51.1451L67.6673 51.1137L67.6974 50.4662L67.7276 49.8187L67.0939 49.7872L66.4594 49.7558L66.4292 49.1573L66.399 48.5588L65.1698 48.5274L63.9415 48.4959V47.2305L64.5761 47.1991L65.1973 47.1676V45.9179H67.7054L67.7356 44.6229L67.7658 43.3418L68.3196 43.29L68.8734 43.2373V41.982L67.6309 41.9506L66.3884 41.9192L66.4185 41.3207L66.4487 40.7231L67.0833 40.6917L67.7045 40.6602V38.0462H66.4088V39.306H65.2V38.0462H63.8909V39.306H62.5686L62.5987 39.9535L62.6289 40.6149L63.2635 40.6464L63.8847 40.6778V43.302L64.5193 43.2706L65.1405 43.2391L65.1902 42.6092L65.2408 41.9793L65.8248 41.9478L66.399 41.9164V44.5508H62.5819V45.9152H61.374V48.5394H62.5819V49.802H61.374V51.1664H62.5819V52.4253H63.8909V53.6852H62.6928L62.6626 53.0765L62.6325 52.478L61.374 52.4253L60.1146 52.3735L60.0836 51.8C60.0632 51.4855 59.9948 51.1914 59.9327 51.1525C59.8706 51.1137 59.6008 51.0683 59.339 51.0683H58.8553L58.8349 49.148L58.8047 47.2379L58.1834 47.2065L57.5622 47.175L57.532 48.4654L57.5018 49.7604L56.8673 49.7918L56.2327 49.8233L56.2629 50.4708L56.2931 51.1183L57.5356 51.1497L58.7639 51.1812V53.6898H53.7202V52.4253H55.0293V51.1766L54.5855 51.1137C53.8205 50.9879 53.7699 51.0295 53.7397 51.775L53.7095 52.4225H52.5114V51.1664H53.7202V49.802H55.0293V48.5422H53.7202V49.7909L53.0989 49.8224L52.4644 49.8538L52.4342 50.4421L52.404 51.0295L51.1855 51.0924C50.5101 51.1349 49.6767 51.1664 49.3217 51.1664H48.6872V49.802H51.2041V48.5523L51.8387 48.5209L52.4599 48.4894L52.4901 47.8281L52.5203 47.1806H55.0275V45.9318L54.4062 45.9004L53.7717 45.8689V44.6063L54.4062 44.5748L55.0275 44.5434V43.2946H48.6854V41.9303H49.8933V40.6704H51.2024V41.9303H52.5114V40.6704H51.2024V38.0462H48.6854V39.306H47.3763V36.7974L48.01 36.766L48.6313 36.7345L48.6614 35.4395L48.6916 34.1593H51.1988V35.4275H49.8835L49.9137 36.075L49.9439 36.7364H51.1527L51.1828 36.075L51.213 35.4275H52.4111V38.0508H53.7202V38.6595C53.7202 38.9962 53.7406 39.3005 53.7601 39.3208C53.7797 39.3412 54.0832 39.3421 54.4151 39.3319L55.0293 39.2894V38.0462H53.7104L53.7406 36.7558L53.7708 35.4747L54.4053 35.4432L55.0266 35.4118V36.7873H56.2354V35.4275H55.0293V34.163H57.5364L57.5675 33.5017L57.5977 32.8542L58.2314 32.8227L58.8526 32.7913V31.5425H58.51C58.2909 31.5377 58.0723 31.5166 57.8559 31.4796C57.5533 31.4167 57.5435 31.4065 57.5435 30.7979V30.1781H56.238V30.7979C56.238 31.2604 56.1972 31.4278 56.0765 31.4796C55.8653 31.5638 54.2536 31.5638 53.2871 31.4796L52.5114 31.4065V28.9155H53.7202V30.1744H55.0293V28.9155H57.5471V27.6575H55.0497C53.6696 27.6575 52.5114 27.6871 52.4812 27.7287ZM52.4111 33.4286V34.0585H51.2024V33.5035C51.2024 33.189 51.2325 32.905 51.2734 32.8736C51.3142 32.8421 51.5751 32.8005 51.8777 32.8005H52.4102L52.4111 33.4286ZM44.8585 36.0519V36.6818H43.5494V36.1268C43.5494 35.8114 43.5796 35.5283 43.6196 35.4969C43.6595 35.4654 43.9524 35.4238 44.2745 35.4238H44.8585V36.0519ZM46.0673 38.6761V39.306H44.8585V41.9303H46.0371L46.1072 40.7018C46.1472 40.0192 46.188 39.4633 46.196 39.4531C46.3861 39.4209 46.5784 39.4049 46.7711 39.405L47.3249 39.3736L47.355 40.0211L47.3852 40.6686H48.6845V39.306H49.1283C49.8436 39.306 49.8933 39.3477 49.8933 40.0516V40.6704H48.6854V41.9303H47.3763V44.5434L48.01 44.5748L48.6313 44.6063L48.6614 45.2538L48.6916 45.9152H49.88L49.9102 45.2538L49.9403 44.6063L51.1828 44.5748L52.4111 44.5434V45.9179H51.2024V47.175H49.9039L49.8738 47.8225L49.8436 48.4839H47.426V47.2305L48.0606 47.1991L48.6819 47.1676V45.9179H46.077L46.0469 47.1991L46.0167 48.4941L45.4425 48.5255L44.8585 48.557V49.7955L46.101 49.827L47.3293 49.8584L47.3595 50.5059L47.3897 51.1673H48.689V52.4262H49.8968V53.6861H48.6854V52.4253H46.1676V51.8592C46.1676 51.1978 46.0371 51.0406 45.4931 51.0609C44.8487 51.0924 44.8585 51.1137 44.8585 50.431V49.802H43.5592L43.529 51.0822L43.4989 52.3772L42.9246 52.4087L42.3407 52.4401V51.1664H38.5173V49.8122L37.8961 49.7807L37.2615 49.7493L37.2313 49.1508L37.2012 48.5523L37.8357 48.5209L38.4703 48.4894L38.5005 47.1944L38.5306 45.9133H37.2047V44.5536H35.9968V43.2835L36.5808 43.315L37.155 43.3464L37.1852 43.9449L37.2154 44.5536H38.5173V43.2946H39.7154L39.7456 42.6333L39.7758 41.9858H40.9837V43.2456L40.3624 43.2771L39.7279 43.3085V44.5573L41.6209 44.5785L43.5042 44.61L43.5344 45.2575L43.5645 45.9189H44.8638V44.5647L45.4984 44.5332L46.1196 44.5018V43.3464L44.8612 43.2946L43.6027 43.2419L43.5725 42.5805L43.5423 41.933H42.3407V40.6806L41.0618 40.6491L39.7731 40.6177L39.743 39.9563L39.7128 39.2959L42.2608 39.3162L44.8079 39.3375L44.8381 38.8232C44.8789 38.0573 44.8887 38.0462 45.5126 38.0462H46.0673V38.6761ZM38.5147 40.6186V41.9303H35.9968V39.4217L36.5293 39.3791C36.8115 39.3588 37.3858 39.3375 37.7887 39.3273L38.5138 39.306L38.5147 40.6186ZM65.2 39.8213C65.2 40.6297 65.1601 40.6713 64.49 40.6713H63.8954V39.306H65.2044L65.2 39.8213ZM65.1423 49.9694C65.1725 50.0619 65.2027 50.6521 65.2027 51.282V52.4253H63.8909V51.1867C63.8909 50.505 63.9211 49.9065 63.9619 49.8751C64.0028 49.8436 64.2637 49.802 64.5557 49.802C64.9382 49.802 65.09 49.8436 65.1423 49.9694ZM41.0121 53.0765L41.0423 53.6852H39.7225V53.1302C39.7225 52.8147 39.7527 52.5317 39.7935 52.4891C39.8344 52.4466 40.1157 52.4262 40.4272 52.4475L40.981 52.479L41.0121 53.0765ZM52.4315 53.0765L52.4617 53.7379L53.0963 53.7693L53.7175 53.8008V56.3094H51.2024V57.6738H52.4014L52.4315 58.3213L52.4617 58.9826L53.0963 59.0141L53.7175 59.0455V60.2943H55.0266V58.9327H53.7104L53.7406 58.324L53.7708 57.7256L54.4053 57.6941L55.0266 57.6627V56.4139H56.2354V57.6738H55.0293V58.9327H55.4624C55.694 58.9327 56.2611 58.9641 56.7208 59.0067L57.5471 59.0696L57.5267 60.9695L57.4965 62.8685L56.8753 62.9L56.2407 62.9315V60.2971H55.039L55.0088 60.8955L54.9787 61.5042L54.3574 61.5356L53.7229 61.5671V60.2971H52.4111V61.5569H51.213L51.1828 60.2619L51.1527 58.9817L49.9235 58.9503L48.6854 58.9225V60.31L48.0642 60.2785L47.4296 60.2471L47.3994 59.6486L47.3692 59.0603L48.034 58.9873L48.689 58.9142V57.6738H46.1676V56.4139L48.01 56.3926L49.8436 56.3612L49.8933 55.7322L49.9439 55.1023L50.5784 55.0708L51.1997 55.0394V53.8008C51.1997 53.1181 51.2299 52.5308 51.2707 52.4993C51.3115 52.4679 51.5724 52.4253 51.8644 52.4253H52.3969L52.4315 53.0765ZM44.8585 54.4196V55.0495H46.0673V56.3094H43.5494V53.7897H44.8585V54.4196ZM48.6854 54.2836C48.6854 54.9968 48.6144 55.0708 47.9701 55.0236L47.426 54.9922L47.3923 54.39L47.3621 53.7915H48.6819L48.6854 54.2836ZM57.5267 55.6998L57.5569 56.3094H56.238V55.7544C56.238 55.4399 56.2682 55.1559 56.3081 55.1143C56.3481 55.0727 56.6303 55.0514 56.9427 55.0727L57.4965 55.1041L57.5267 55.6998ZM62.5854 56.9948V58.9373H58.8579V55.0523H62.5854V56.9948ZM62.5854 60.9307V61.5606H61.374V62.925H62.5819V64.1848H61.374V62.9213H60.0641V64.1811H58.8562V62.9213H60.0641V61.5569H58.8562V60.2971H62.5837L62.5854 60.9307Z" fill="black"/>
<path d="M38.5176 45.2325V45.9142H39.7255V47.175H41.0345V45.9262L40.4133 45.8948L39.7787 45.8633L39.7485 45.202L39.7184 44.5545H38.5176V45.2325Z" fill="black"/>
<path d="M42.2803 47.3248C42.2501 47.3979 42.2404 47.6948 42.2608 47.9723L42.2909 48.4866L42.9246 48.5181L43.5459 48.5495V47.175H42.9415C42.5226 47.175 42.3211 47.2194 42.2803 47.3248Z" fill="black"/>
<path d="M39.7227 49.1721V49.802H41.0317V48.5421H39.7227V49.1721Z" fill="black"/>
<path d="M60.1355 56.3723C60.0955 56.4139 60.0645 56.7284 60.0645 57.0651V57.6737H61.3842L61.354 57.0124L61.3238 56.3649L60.77 56.3334C60.4576 56.3094 60.1727 56.3325 60.1355 56.3723Z" fill="black"/>
<path d="M60.084 32.19L60.1142 36.7345H68.8755V27.7084L64.4647 27.6769L60.0645 27.6575L60.084 32.19ZM67.697 32.1373L67.6668 35.3702L64.525 35.4016L61.3735 35.4229V28.9155H67.7165L67.697 32.1373Z" fill="black"/>
<path d="M62.6229 30.3113C62.6024 30.3844 62.5927 31.2659 62.6024 32.2742L62.6326 34.1103L64.5257 34.1418L66.4089 34.163V30.1744H64.5452C63.1163 30.1744 62.6628 30.2059 62.6229 30.3113Z" fill="black"/>
<path d="M21.0427 29.0727C19.5828 29.8497 18.8976 31.4241 19.321 33.0613C19.4985 33.7958 19.7035 34.1528 20.2085 34.6459C21.0747 35.5172 22.2497 35.8215 23.3502 35.4784C23.9715 35.2795 24.3673 35.027 24.8909 34.4609C25.5059 33.7995 25.7269 33.1797 25.7269 32.141C25.7269 31.1022 25.5157 30.5564 24.8394 29.8285C24.1037 29.0413 23.7318 28.884 22.5532 28.8415C21.6364 28.81 21.4962 28.8313 21.0427 29.0727Z" fill="#084981"/>
<path d="M42.2803 29.0626C42.2501 29.1356 42.2404 29.4085 42.2608 29.6601L42.2909 30.1226L42.9246 30.1541L43.5459 30.1855V28.9155H42.9415C42.5226 28.9155 42.3211 28.9571 42.2803 29.0626Z" fill="black"/>
<path d="M57.5469 36.1046V36.7974L58.1814 36.766L58.8027 36.7345L58.8329 36.0732L58.863 35.4257H57.5469V36.1046Z" fill="black"/>
<path d="M20.9622 36.075C20.5184 36.2008 18.6662 37.9009 17.7201 39.0563C17.3971 39.4549 16.9143 40.0109 16.6622 40.305C16.159 40.86 14.6689 42.8765 14.3361 43.4324C14.2138 43.6718 14.148 43.9382 14.1444 44.2094C14.1429 44.4586 14.1058 44.7061 14.0344 44.9439C13.9565 45.1585 13.8934 45.3786 13.8453 45.6025C13.8054 45.8023 13.6678 46.348 13.5436 46.8096C13.4193 47.2712 13.2818 47.8382 13.2312 48.0685C13.1806 48.2989 13.0599 48.7928 12.9596 49.1711C12.7581 49.9269 12.7777 49.9111 11.9123 49.7058C11.6399 49.6429 11.2174 49.5485 10.9654 49.4856C10.2501 49.3284 10.2101 49.2553 10.4329 48.5939C10.755 47.6282 10.6441 47.3554 9.90039 47.3443C9.47794 47.3341 9.47794 47.3341 9.33682 47.8586C9.07057 48.8243 9.03419 48.8872 8.73244 48.8243C8.58156 48.7928 8.11829 48.667 7.7056 48.5412C6.527 48.1953 5.92261 48.1712 5.44957 48.457C4.97654 48.7429 4.74934 49.1508 4.43782 50.431C4.30736 50.9767 4.09525 51.8065 3.97455 52.268C3.85385 52.7296 3.63907 53.5279 3.51039 54.0524C3.3817 54.5768 3.1687 55.3538 3.05776 55.784C2.94682 56.2141 2.81547 56.7395 2.77554 56.9384C2.69477 57.3084 2.62466 57.5794 2.32202 58.5654C1.99986 59.6042 2.17115 60.4867 2.77554 60.9482C2.96724 61.0953 3.4101 61.2942 3.7722 61.3996C4.1343 61.5051 4.62864 61.6411 4.88069 61.7141C5.13274 61.7872 5.89776 62.0083 6.59179 62.1868C8.67652 62.7418 8.60641 62.7011 8.81054 63.2672C9.04217 63.8971 9.15311 64.0442 9.62615 64.2958C10.1391 64.5687 10.5722 64.5483 11.0763 64.2329C11.263 64.1158 11.4251 63.9607 11.5531 63.7768C11.681 63.593 11.7721 63.3842 11.821 63.1629C11.8699 62.9416 11.8755 62.7122 11.8375 62.4886C11.7995 62.265 11.7187 62.0516 11.5999 61.8612C11.4224 61.5883 11.3878 61.4311 11.4384 61.1897C11.7934 59.7097 12.1635 58.1566 12.2949 57.6747C12.3836 57.3592 12.5762 56.6035 12.7386 55.9949C12.901 55.3862 13.0705 54.7461 13.1211 54.5778C13.2223 54.2531 13.4539 53.329 13.7051 52.2653C13.7859 51.9193 13.927 51.3939 14.0077 51.1109C14.0885 50.8278 14.2394 50.2081 14.3494 49.7465C14.6414 48.5606 14.944 47.4266 15.1349 46.7763L15.2964 46.2306H15.7597C16.3738 46.2306 16.8371 45.9679 17.3208 45.3278C17.5418 45.0234 18.005 44.4028 18.3574 43.9319C18.7097 43.4611 19.0221 43.0819 19.0629 43.0819C19.1038 43.0819 19.1428 44.2261 19.1428 45.6321C19.1428 47.0381 19.204 48.5708 19.2537 49.0638L19.3478 49.9592L18.9928 50.641C17.603 53.2236 16.0729 57.3694 14.834 61.851C14.6325 62.5957 15.1766 63.677 15.891 63.96C16.2638 64.1071 17.1335 64.1071 17.3998 63.96C18.021 63.6243 18.266 63.2256 18.6795 61.8325C18.9103 61.0768 19.2227 60.0797 19.3842 59.6181C19.5457 59.1565 19.7392 58.5266 19.828 58.2223C19.9475 57.8135 20.0888 57.4121 20.2513 57.0198C20.3915 56.6627 20.553 56.2742 20.593 56.1586C20.6329 56.043 20.956 55.2983 21.3083 54.501C21.9296 53.0524 22.1541 52.6954 22.2446 52.9683C22.6378 54.1856 23.3824 56.5471 23.5643 57.1557C23.8359 58.0585 24.5912 60.3572 25.0447 61.6688C25.5381 63.0859 26.0014 63.5586 26.9084 63.5586C27.4826 63.5586 28.2778 63.1285 28.5494 62.666C28.9222 62.0259 28.9124 61.556 28.4997 60.3044C28.2983 59.6958 28.0968 59.0557 28.0462 58.8883C27.9761 58.6043 27.5022 57.1243 26.4549 53.9025C26.2339 53.2411 25.9109 52.2227 25.7298 51.6455C25.5488 51.0683 25.3571 50.5022 25.2967 50.3866C25.2364 50.271 25.1663 49.7779 25.1556 49.284C25.145 48.79 25.0953 47.7115 25.0349 46.8707C24.9142 45.1594 24.8938 43.4065 24.995 43.4065C25.0252 43.4065 25.287 43.6267 25.5692 43.8996C26.0325 44.351 26.7274 44.9171 28.0462 45.9466C28.6302 46.398 30.1407 47.3526 30.5135 47.4997C30.8862 47.6467 31.3495 47.4793 31.8225 47.0066L32.205 46.6292L32.1544 45.5895C32.0941 44.351 32.1349 44.4037 30.6137 43.3436C28.4385 41.8109 26.999 40.4678 25.555 38.5993C24.5282 37.2775 23.8332 36.5532 23.3096 36.2692C22.786 35.9853 21.5763 35.8844 20.9622 36.075ZM9.08921 51.2922C9.26671 51.4772 9.23032 52.3938 9.00934 53.2439C8.92409 53.5367 8.8568 53.8349 8.80787 54.1365C8.80787 54.2096 9.35102 54.8923 10.0158 55.6683C10.6805 56.4444 11.2449 57.1594 11.2849 57.2741C11.355 57.5054 11.0834 57.9882 10.8917 57.9882C10.8118 57.9882 10.3992 57.7154 9.95541 57.3796C9.51166 57.0438 8.97916 56.6655 8.76705 56.5397C8.2736 56.2354 8.21325 56.2881 7.87067 57.4009L7.60442 58.2195L7.947 58.5654C8.32951 58.9354 8.3801 59.1537 8.1387 59.3628C8.00735 59.4682 7.80589 59.4368 6.9104 59.1426C5.63151 58.7227 5.50016 58.6283 5.66169 58.2509C5.75044 58.0511 5.8525 57.9882 6.08414 57.9882C6.42671 57.9882 6.78881 57.6737 6.78881 57.3583C6.82044 57.0857 6.87117 56.8158 6.94057 56.5508C7.04086 56.1512 7.06127 55.9209 6.99027 55.8469C6.91927 55.7729 6.21549 55.7109 5.39987 55.6794L3.91952 55.6267L3.9497 55.2567C3.95946 55.0569 4.01005 54.858 4.05975 54.8053C4.10945 54.7526 4.88601 54.5324 5.79215 54.3012C6.69829 54.0699 7.5139 53.8082 7.60442 53.724C7.69495 53.6398 7.80589 53.3882 7.84671 53.1782C7.96741 52.5169 8.29046 51.6668 8.52121 51.405C8.75196 51.1432 8.90816 51.1035 9.08921 51.2922Z" fill="#084981"/>
<path d="M57.5476 38.6761V39.2959L56.9264 39.3273L56.2918 39.3588L56.2616 40.0063L56.2314 40.6676H58.7528V41.9303H57.5476V44.5434L56.9264 44.5748L56.2918 44.6063V45.8661H58.8061L58.8363 43.8922L58.8567 41.9192L59.4406 41.9506L60.0149 41.9821L60.045 42.6296L60.0752 43.2909H61.3745V44.561L62.0082 44.5295L62.6294 44.4981V43.3464L62.0082 43.315L61.3745 43.2835V39.2959L61.9283 39.3162C62.2398 39.3375 62.5318 39.2959 62.593 39.232C62.6543 39.1682 62.6818 38.8963 62.6632 38.6132L62.633 38.0989L62.0117 38.0675L61.3781 38.036V39.306H60.0646V38.0462H57.5476V38.6761ZM60.0646 39.9878V40.6704H58.8567V39.4217L59.2392 39.3791C60.1356 39.2848 60.0646 39.232 60.0646 39.9878Z" fill="black"/>
<path d="M53.7207 41.3003V41.9303H55.0298V40.6704H53.7207V41.3003Z" fill="black"/>
<path d="M67.7165 54.3669V55.0495H66.3994L66.4296 55.697L66.4598 56.3584H67.6677L67.6978 55.697L67.728 55.0495H68.9368L68.9066 54.3881L68.8764 53.7406L68.3022 53.7092L67.7182 53.6777L67.7165 54.3669Z" fill="black"/>
<path d="M32.1699 60.8742V65.44H41.0316V56.3094H32.1699V60.8742ZM39.7225 60.927V64.1811H33.3787V61.001C33.3787 59.2435 33.4089 57.7783 33.4488 57.7468C33.4887 57.7154 34.9087 57.6737 36.6207 57.6737H39.7225V60.927Z" fill="black"/>
<path d="M34.6875 60.927V62.9213H38.5171L38.4966 60.9483L38.4665 58.9854L36.5832 58.954L34.6902 58.9327L34.6875 60.927Z" fill="black"/>
<path d="M53.7207 64.8101V65.4401H55.0298V64.1811H53.7207V64.8101Z" fill="black"/>
<path d="M4.81895 68.635C4.78878 68.7081 4.78878 69.4425 4.79943 70.2723L4.8296 71.7939H5.63545L5.68515 70.954C5.73574 70.1465 5.7455 70.115 5.98779 70.115C6.23008 70.115 6.23895 70.1465 6.28954 70.954L6.34013 71.7939H7.14598V70.8245C7.14598 70.0373 7.10515 69.8273 6.95428 69.6488C6.72264 69.387 6.07832 69.3445 5.88928 69.5859C5.70024 69.8273 5.63811 69.6914 5.63811 69.0827V68.537L5.25471 68.5259C5.04083 68.5157 4.83937 68.5684 4.81895 68.635Z" fill="#084981"/>
<path d="M16.4507 68.5046C16.4507 68.5258 16.2794 69.2816 16.0682 70.1945C15.7558 71.57 15.7052 71.8743 15.8259 71.916C15.862 71.9331 15.902 71.9393 15.9412 71.9337C15.9805 71.9282 16.0175 71.9111 16.0478 71.8845C16.1587 71.7587 16.8536 68.6627 16.7933 68.5684C16.7525 68.4944 16.4711 68.45 16.4507 68.5046Z" fill="#084981"/>
<path d="M17.7293 68.5684C17.6583 68.6831 17.0344 71.4442 17.0246 71.6856C17.014 71.8216 17.0743 71.8947 17.2021 71.8947C17.3628 71.8947 17.4338 71.7097 17.6654 70.6358C17.8163 69.9429 17.9876 69.1974 18.0479 68.9874C18.1083 68.7774 18.118 68.5786 18.0879 68.5471C18.0356 68.5051 17.9706 68.4842 17.9048 68.4881C17.8389 68.492 17.7766 68.5205 17.7293 68.5684Z" fill="#084981"/>
<path d="M42.0391 68.82C42.0391 69.1141 42.0595 69.1243 42.4216 69.0975C42.734 69.066 42.7943 69.0235 42.7943 68.8144C42.7943 68.6054 42.7437 68.5619 42.4216 68.5416C42.0595 68.5157 42.0391 68.5369 42.0391 68.82Z" fill="#084981"/>
<path d="M45.8961 68.61C45.8553 68.6831 45.6538 69.4499 45.4524 70.3C45.1506 71.595 45.1107 71.8725 45.2314 71.916C45.2692 71.9326 45.3106 71.9384 45.3513 71.9329C45.392 71.9274 45.4306 71.9107 45.463 71.8845C45.574 71.7587 46.268 68.6729 46.2076 68.5684C46.1278 68.4417 45.9867 68.463 45.8961 68.61Z" fill="#084981"/>
<path d="M57.2853 68.5786C57.2525 68.6727 57.2386 68.7728 57.2445 68.8727C57.2445 69.0929 57.2853 69.1142 57.7078 69.1142C58.1302 69.1142 58.1613 69.1031 58.1311 68.8302C58.1009 68.5888 58.0503 68.5527 57.7184 68.5471C57.5099 68.537 57.3048 68.5573 57.2853 68.5786Z" fill="#084981"/>
<path d="M61.6161 68.635C61.5859 68.7081 61.5859 69.4425 61.5956 70.2723L61.6258 71.7939H62.4317L62.4618 71.0382C62.492 70.2723 62.6331 69.9781 62.9251 70.0937C63.0361 70.1465 63.0866 70.3768 63.1026 70.9753L63.1328 71.7939H63.9386V70.8347C63.9386 70.0373 63.9085 69.8273 63.7469 69.6488C63.5153 69.387 62.871 69.3445 62.6819 69.5859C62.4929 69.8273 62.4299 69.6914 62.4299 69.0827V68.537L62.0474 68.5259C61.8379 68.5157 61.6365 68.5684 61.6161 68.635Z" fill="#084981"/>
<path d="M8.23337 68.82C8.05587 68.9356 7.90145 69.1141 7.90145 69.2187C7.89887 69.2703 7.88354 69.3203 7.85695 69.3639C7.83036 69.4075 7.79341 69.4432 7.74968 69.4675C7.66981 69.4989 7.59881 69.6358 7.59881 69.7829C7.59695 69.8443 7.60977 69.9051 7.63611 69.96C7.66245 70.0149 7.70148 70.0622 7.74968 70.0974C7.86062 70.14 7.90145 70.3287 7.90145 70.8217C7.90145 71.7032 8.02215 71.8605 8.65671 71.8188C9.1191 71.7874 9.15992 71.7661 9.15992 71.5247C9.15992 71.3397 9.10933 71.2629 8.95846 71.2629C8.78717 71.2629 8.757 71.1787 8.72682 70.7079C8.69665 70.2047 8.71706 70.1529 8.95846 70.0604C9.29038 69.9346 9.28062 69.4832 8.95846 69.4832C8.79693 69.4832 8.74723 69.399 8.72682 69.0318C8.68688 68.5369 8.67623 68.5258 8.23337 68.82Z" fill="#084981"/>
<path d="M10.1978 68.8098C9.96621 68.9356 9.81445 69.0929 9.81445 69.2085C9.81254 69.2619 9.7977 69.3138 9.77132 69.3596C9.74494 69.4054 9.70787 69.4435 9.66357 69.4703C9.61867 69.494 9.58086 69.53 9.55426 69.5745C9.52765 69.6191 9.51328 69.6703 9.5127 69.7228C9.52059 69.8505 9.57447 69.9705 9.66357 70.0586C9.76474 70.1427 9.81445 70.3842 9.81445 70.7828C9.81445 71.6153 9.98573 71.8429 10.6203 71.8429C10.8919 71.8429 11.1342 71.8114 11.1528 71.7587C11.2327 71.6218 11.0516 71.2657 10.9105 71.2657C10.8218 71.2657 10.7499 71.0872 10.709 70.7403C10.6389 70.1316 10.6593 70.0586 10.9309 70.0586C11.072 70.0586 11.1217 69.9846 11.1217 69.7431C11.1217 69.4814 11.0818 69.4286 10.8803 69.4286C10.6593 69.4286 10.6389 69.3972 10.6895 69.0087C10.7516 68.5369 10.7215 68.5157 10.1978 68.8098Z" fill="#084981"/>
<path d="M65.0292 68.82C64.8517 68.9356 64.6973 69.1141 64.6973 69.2187C64.6953 69.2707 64.6804 69.3212 64.6539 69.3654C64.6274 69.4095 64.5904 69.4457 64.5464 69.4703C64.5015 69.494 64.4637 69.53 64.4371 69.5745C64.4105 69.6191 64.3961 69.6703 64.3955 69.7228C64.4034 69.8505 64.4573 69.9705 64.5464 70.0586C64.6467 70.1511 64.6973 70.3943 64.6973 70.8346C64.6973 71.706 64.818 71.8632 65.4525 71.8216C65.9158 71.7902 65.9557 71.7689 65.9557 71.5275C65.9557 71.3425 65.906 71.2657 65.7543 71.2657C65.583 71.2657 65.5528 71.1815 65.5226 70.7107C65.4925 70.2075 65.5129 70.1557 65.7543 70.0632C66.0871 69.9374 66.0764 69.486 65.7543 69.486C65.5936 69.486 65.543 69.4018 65.5226 69.0346C65.4827 68.5369 65.4729 68.5258 65.0292 68.82Z" fill="#084981"/>
<path d="M11.6668 69.5646C11.6464 69.6386 11.6366 70.3629 11.6464 71.1602L11.6775 72.6301H12.0325C12.3741 72.6301 12.3875 72.619 12.415 72.1888L12.4451 71.7587L12.9776 71.8114C13.4711 71.8632 13.5217 71.8531 13.7764 71.5275C14.1589 71.0557 14.1687 70.2158 13.7862 69.7542C13.6488 69.5823 13.4567 69.4676 13.2449 69.4309C13.0331 69.3942 12.8158 69.4381 12.6324 69.5544C12.4611 69.6599 12.4008 69.6599 12.3662 69.5544C12.3014 69.387 11.7378 69.387 11.6668 69.5646ZM13.0566 70.1316C13.298 70.3629 13.2883 70.9188 13.0362 71.1602C12.8454 71.3388 12.825 71.3388 12.6333 71.1602C12.3919 70.9299 12.3715 70.4045 12.6031 70.1427C12.8046 69.9115 12.825 69.9115 13.0566 70.1316Z" fill="#084981"/>
<path d="M14.5879 69.5757C14.5535 69.7235 14.5466 69.8767 14.5674 70.0271C14.5976 70.3046 14.6376 70.3203 15.0005 70.3203H15.4035V69.9013C15.4035 69.4916 15.3928 69.4814 15.021 69.4499C14.7591 69.4287 14.6278 69.4601 14.5879 69.5757Z" fill="#084981"/>
<path d="M18.2332 69.5128C18.1835 69.6053 18.8375 71.5071 19.0088 71.7171C19.0692 71.7902 19.2502 71.8429 19.4215 71.8216C19.7037 71.7902 19.7543 71.7291 19.9354 71.1917C20.0463 70.8559 20.167 70.5831 20.1972 70.5831C20.2274 70.5831 20.3578 70.8606 20.4688 71.1815C20.6463 71.78 20.6605 71.7902 21.043 71.7902H21.4157L21.808 70.67C22.0201 70.0614 22.163 69.5258 22.1302 69.4943C22.0222 69.4471 21.9054 69.4257 21.7885 69.4314C21.4557 69.4314 21.3447 69.61 21.2444 70.3028C21.1557 70.9327 20.9924 70.9013 20.8007 70.2103C20.6294 69.5628 20.5282 69.4333 20.1865 69.4333C19.8449 69.4333 19.7428 69.5591 19.5715 70.2417C19.5014 70.5461 19.4109 70.7967 19.37 70.7967C19.2813 70.7967 19.0781 70.1252 19.0781 69.8412C19.0702 69.7352 19.0276 69.6352 18.9574 69.5582C18.8278 69.4185 18.3139 69.387 18.2332 69.5128Z" fill="#084981"/>
<path d="M22.3722 69.4915C22.342 69.523 22.4832 70.0586 22.6944 70.6672L23.0867 71.7902H23.4701C23.8623 71.7902 23.8623 71.78 24.0434 71.1815C24.1446 70.8559 24.2653 70.583 24.3158 70.583C24.3664 70.583 24.4765 70.8605 24.5777 71.1815C24.7685 71.78 24.7685 71.7902 25.1616 71.7902H25.5539L25.9151 70.7199C26.1166 70.1215 26.3278 69.6599 26.3784 69.6701C26.429 69.6802 26.6402 70.1742 26.8417 70.7514L27.1967 71.7902H27.5889C27.9821 71.7902 27.9821 71.7902 28.1836 71.1288C28.2945 70.7717 28.4046 70.4813 28.4347 70.4813C28.4649 70.4813 28.5865 70.7745 28.6965 71.1417C28.8785 71.7199 28.9282 71.7892 29.19 71.8244C29.3515 71.8457 29.5228 71.8142 29.5832 71.7513C29.734 71.5931 30.4494 69.6099 30.389 69.5045C30.318 69.3787 29.7846 69.4212 29.6737 69.5572C29.5895 69.731 29.5352 69.9189 29.513 70.1122C29.442 70.5312 29.2912 70.8883 29.2308 70.7939C29.2104 70.7625 29.1101 70.4582 28.9992 70.1122C28.7977 69.4823 28.7977 69.4823 28.4046 69.4823H28.0123L27.841 70.1011C27.7522 70.448 27.6298 70.7412 27.5694 70.7625C27.5091 70.7838 27.4381 70.584 27.4079 70.3213C27.297 69.4888 27.2473 69.4508 26.3811 69.4508C25.9373 69.4508 25.5956 69.5026 25.5548 69.5655C25.4744 69.7608 25.4169 69.9655 25.3835 70.1751C25.3232 70.4526 25.2326 70.6783 25.1723 70.6894C25.1119 70.7005 25.001 70.4794 24.9202 70.1955C24.7197 69.5137 24.6487 69.4296 24.3265 69.4296C23.9644 69.4296 23.8632 69.5655 23.7052 70.1955C23.5641 70.8041 23.4026 70.7838 23.2615 70.1538C23.2233 69.9482 23.1638 69.7475 23.084 69.5554C22.9961 69.4286 22.4832 69.375 22.3722 69.4915Z" fill="#084981"/>
<path d="M32.1493 69.733C31.8476 70.016 31.8174 70.103 31.8174 70.6358C31.8174 71.1686 31.8476 71.2546 32.1493 71.5386C32.4218 71.7902 32.5629 71.8429 33.0262 71.8429C33.3279 71.8429 33.6802 71.7902 33.8249 71.7171C34.1071 71.5904 34.4186 71.1713 34.3184 71.0696C34.187 70.9438 33.5427 71.0067 33.3714 71.175C32.9995 71.5312 32.5363 71.0594 32.6463 70.4508C32.7271 70.041 33.0297 69.8958 33.3315 70.1039C33.6137 70.3037 34.1471 70.324 34.2482 70.1464C34.2882 70.0826 34.187 69.905 33.9962 69.7265C33.7237 69.474 33.5933 69.4323 33.0794 69.4323C32.5655 69.4323 32.4315 69.4675 32.1493 69.733Z" fill="#084981"/>
<path d="M34.9291 69.6914C34.788 69.8375 34.6975 69.9957 34.7277 70.0475C34.8386 70.226 35.4226 70.2371 35.7039 70.0688C35.9356 69.9328 35.9959 69.9328 36.137 70.0475C36.3687 70.2473 36.2577 70.325 35.5158 70.4785C34.6398 70.6635 34.3274 71.1501 34.7907 71.6329C35.0126 71.8633 35.6782 71.916 36.0092 71.7254C36.1601 71.6514 36.2515 71.6514 36.3518 71.7356C36.5027 71.8614 37.1772 71.8411 37.1372 71.7042C37.1168 71.6625 37.1071 71.2528 37.1071 70.7912C37.1071 70.0253 37.0769 69.9198 36.855 69.6895C36.6331 69.4592 36.5231 69.4268 35.8983 69.4268C35.2735 69.4268 35.151 69.4601 34.9291 69.6914ZM36.1077 71.1186C35.8415 71.3388 35.6338 71.3702 35.5433 71.2111C35.3924 70.9484 36.0172 70.6025 36.2489 70.8226C36.3092 70.8772 36.2586 70.9817 36.1077 71.1186Z" fill="#084981"/>
<path d="M38.0518 69.6285C37.3764 70.0586 37.3764 71.213 38.0412 71.6329C38.4849 71.916 39.3005 71.916 39.6529 71.6218C40.2262 71.1593 40.2262 70.1113 39.6529 69.6386C39.3103 69.3556 38.484 69.3556 38.0518 69.6285ZM39.0281 70.0586C39.3103 70.2158 39.3005 71.0557 39.0183 71.213C38.9585 71.2541 38.8885 71.276 38.8168 71.276C38.7452 71.276 38.6752 71.2541 38.6154 71.213C38.3633 71.0659 38.3438 70.4258 38.5852 70.1428C38.7769 69.9217 38.7769 69.9217 39.0281 70.0586Z" fill="#084981"/>
<path d="M42.0676 69.597C42.0472 69.6599 42.0472 70.1742 42.0578 70.7514L42.088 71.7902H42.7927V69.5017L42.4501 69.4915C42.2708 69.4814 42.0996 69.5332 42.0676 69.597Z" fill="#084981"/>
<path d="M43.4482 70.5303V71.706C43.4482 71.7587 43.6195 71.7902 43.8316 71.7902H44.2035L44.2541 71.0974C44.3047 70.4045 44.4857 70.0059 44.7076 70.1002C44.8851 70.1631 45.0626 69.9531 45.0626 69.6701C45.0626 69.4703 45.012 69.4287 44.76 69.4287C44.6844 69.4249 44.609 69.439 44.5393 69.47C44.4697 69.5009 44.4077 69.5478 44.3579 69.6072C44.2568 69.7857 44.2568 69.7857 44.1565 69.6072C44.1065 69.5478 44.0443 69.5009 43.9746 69.4699C43.9048 69.439 43.8293 69.4249 43.7535 69.4287H43.4509L43.4482 70.5303Z" fill="#084981"/>
<path d="M46.6107 69.5646C46.5911 69.6386 46.5805 70.3629 46.5911 71.1602L46.6213 72.6301H46.9763C47.3189 72.6301 47.3313 72.619 47.3588 72.1888L47.389 71.7587L47.9215 71.8114C48.4149 71.8632 48.4655 71.8531 48.7202 71.5275C49.1028 71.0557 49.1125 70.2158 48.73 69.7542C48.5926 69.5823 48.4005 69.4676 48.1887 69.4309C47.977 69.3942 47.7596 69.4381 47.5763 69.5544C47.405 69.6599 47.3446 69.6599 47.31 69.5544C47.2452 69.387 46.6825 69.387 46.6107 69.5646ZM48.0005 70.1316C48.2419 70.3629 48.2321 70.9188 47.9801 71.1602C47.7893 71.3388 47.7688 71.3388 47.578 71.1602C47.3357 70.9299 47.3118 70.5127 47.5372 70.1844C47.7183 69.9115 47.7591 69.9013 48.0005 70.1316Z" fill="#084981"/>
<path d="M49.7528 69.6525C49.6126 69.7681 49.4866 69.9254 49.4866 70.0096C49.4866 70.2094 50.1016 70.2723 50.3634 70.0937C50.6252 69.9152 50.9474 69.9467 50.9474 70.1668C50.9474 70.2723 50.7459 70.3666 50.343 70.461C50.0102 70.534 49.6579 70.6709 49.5673 70.7653C49.4558 70.8868 49.3936 71.0485 49.3936 71.2167C49.3936 71.3849 49.4558 71.5466 49.5673 71.6681C49.8194 71.8984 50.5649 71.8984 50.8161 71.6681C50.9873 71.5108 51.0078 71.5108 51.1285 71.6783C51.2172 71.8041 51.3601 71.8568 51.5518 71.8253L51.8331 71.7939L51.8136 70.8495C51.7825 69.6007 51.6521 69.4324 50.6954 69.4324C50.1664 69.4287 49.9667 69.4675 49.7528 69.6525ZM50.9714 71.0483C50.8915 71.2583 50.4176 71.3841 50.2765 71.238C50.1353 71.0918 50.3377 70.8282 50.6315 70.7755C50.9252 70.7227 51.0424 70.8347 50.9714 71.0446V71.0483Z" fill="#084981"/>
<path d="M52.2798 69.4915C52.2496 69.5332 52.3686 69.7746 52.562 70.0373C52.7555 70.3 52.917 70.5516 52.917 70.5923C52.917 70.633 52.7564 70.9179 52.562 71.2019C52.3677 71.4858 52.207 71.7365 52.207 71.7791C52.207 71.8216 52.3987 71.842 52.6304 71.8207C52.9925 71.7994 53.0936 71.7365 53.264 71.4507C53.375 71.2657 53.4957 71.1149 53.5365 71.1038C53.5773 71.0927 53.6874 71.2722 53.8081 71.4738C53.9856 71.8096 54.0504 71.8438 54.4728 71.8438C54.7249 71.8438 54.9263 71.8124 54.9263 71.7698C54.8065 71.5476 54.6681 71.3368 54.5128 71.1399L54.1134 70.5775L54.5154 70.0734C54.7373 69.7959 54.8988 69.5378 54.858 69.4962C54.8172 69.4545 54.6264 69.4333 54.4142 69.4333C54.1125 69.4333 53.9909 69.4962 53.8205 69.7478C53.6989 69.9161 53.5685 70.0632 53.5383 70.0632C53.5081 70.0632 53.4069 69.9161 53.3466 69.7478C53.2463 69.4647 53.1859 69.4333 52.7928 69.4333C52.5398 69.4286 52.3206 69.4601 52.2798 69.4915Z" fill="#084981"/>
<path d="M55.3718 69.5646C55.3434 69.9595 55.3366 70.3557 55.3513 70.7514L55.3815 71.7902H56.0915L56.1519 71.0872C56.2122 70.3629 56.3729 70.0059 56.6151 70.1002C56.766 70.1631 57.0979 69.7015 56.9977 69.5332C56.9089 69.387 56.4137 69.3972 56.2522 69.5545C56.1412 69.6599 56.111 69.6599 56.0747 69.5545C56.0063 69.387 55.4419 69.387 55.3718 69.5646Z" fill="#084981"/>
<path d="M57.285 69.5859C57.2548 69.6488 57.2548 70.1742 57.2646 70.7514L57.2948 71.7902H58.1006V69.4915L57.7181 69.4703C57.4962 69.4675 57.3045 69.5128 57.285 69.5859Z" fill="#084981"/>
<path d="M58.8166 69.7543C58.3533 70.3204 58.5441 71.3702 59.1485 71.6218C59.4503 71.7587 59.602 71.7486 59.9943 71.5802C60.1452 71.5173 60.1718 71.5386 60.1452 71.7375C60.1052 72.0843 59.8132 72.2416 59.5612 72.0732C59.3867 71.9926 59.1983 71.9498 59.0074 71.9474C58.7252 71.9474 58.6524 71.99 58.6524 72.1574C58.6524 72.5043 59.1254 72.7346 59.831 72.7346C60.3741 72.7346 60.4948 72.693 60.7265 72.4571C60.9785 72.1796 60.9927 72.1426 60.9989 70.83C61.0087 69.4869 61.0087 69.4768 60.7771 69.4425C60.6108 69.4268 60.4435 69.4588 60.2934 69.535C60.1159 69.6396 60.0316 69.6396 59.9384 69.5452C59.8683 69.4721 59.6464 69.4194 59.4449 69.4194C59.1583 69.4287 59.0189 69.5017 58.8166 69.7543ZM59.9703 70.0586C60.202 70.1946 60.2366 70.8143 60.0112 71.003C59.6082 71.349 59.1849 70.72 59.4973 70.226C59.6925 69.9217 59.7023 69.9115 59.9739 70.0586H59.9703Z" fill="#084981"/>
<path d="M66.6309 69.6701C66.1677 70.1742 66.4295 70.7301 67.1945 70.8559C67.6782 70.9401 67.9799 71.1334 67.8796 71.2971C67.7794 71.4609 67.3862 71.4544 67.2344 71.2971C67.0631 71.1186 66.5395 71.0973 66.4091 71.2657C66.3283 71.3702 66.3691 71.4507 66.5697 71.6218C66.7703 71.7929 66.9833 71.8429 67.4865 71.8429C68.0704 71.8429 68.1716 71.8114 68.4334 71.5386C68.5941 71.3702 68.7254 71.1602 68.7254 71.0761C68.7254 70.7403 68.3624 70.4471 67.7687 70.3203C67.4465 70.2574 67.1546 70.1427 67.1341 70.0789C67.0738 69.8939 67.4164 69.7959 67.6276 69.9328C67.8388 70.0697 68.4831 70.1002 68.5737 69.9642C68.6047 69.9115 68.5036 69.7644 68.3624 69.6488C67.9595 69.3241 66.9327 69.3343 66.6309 69.6701Z" fill="#084981"/>
<path d="M14.6179 70.9614C14.5771 71.003 14.5469 71.2232 14.5469 71.4442V71.8531L14.98 71.8216C15.4033 71.7902 15.4033 71.7902 15.4033 71.3702C15.4033 70.9503 15.3927 70.9503 15.0483 70.9188C14.8495 70.8985 14.6578 70.9188 14.6179 70.9614Z" fill="#084981"/>
<path d="M30.3981 71.0446C30.3642 71.1924 30.3572 71.3455 30.3777 71.496C30.4078 71.7735 30.438 71.7902 30.8409 71.7902C31.0726 71.7902 31.2643 71.7587 31.2643 71.706V71.2657C31.2643 70.9086 31.2545 70.8957 30.8614 70.8957C30.5995 70.8985 30.4283 70.9475 30.3981 71.0446Z" fill="#084981"/>
<path d="M40.5185 70.9401C40.5185 70.9716 40.5078 71.1815 40.5078 71.3915L40.498 71.7902H41.3855V71.3702C41.3855 70.9503 41.3855 70.9503 40.9631 70.9188C40.719 70.8985 40.5282 70.9087 40.5185 70.9401Z" fill="#084981"/>
</svg>
